<svg xmlns="http://www.w3.org/2000/svg" version="1.1" xmlns:xlink="http://www.w3.org/1999/xlink" xmlns:svgjs="http://svgjs.dev/svgjs" width="2000" height="2775" viewBox="0 0 2000 2775"><g transform="matrix(1,0,0,1,0.07590464650968443,1.1235238756949002)"><svg viewBox="0 0 178 247" data-background-color="#ffffff" preserveAspectRatio="xMidYMid meet" height="2775" width="2000" xmlns="http://www.w3.org/2000/svg" xmlns:xlink="http://www.w3.org/1999/xlink"><g id="tight-bounds" transform="matrix(1,0,0,1,-0.006755513539360436,-0.09999703223112988)"><svg viewBox="0 0 178.01351102707875 247.2" height="247.2" width="178.01351102707875"><g><svg viewBox="0 0 178.01351102707875 247.2" height="247.2" width="178.01351102707875"><g><svg viewBox="0 0 250.61599701209298 348.02006939779665" height="247.2" width="178.01351102707875"><g><svg viewBox="0 0 250.61599701209298 348.02006939779665" height="348.02006939779665" width="250.61599701209298"><g id="textblocktransform"><svg viewBox="0 0 250.61599701209298 348.02006939779665" height="348.02006939779665" width="250.61599701209298" id="textblock"><g><rect width="250.61599701209298" height="22.154981908537728" x="0" y="271.7711046775968" fill="#ffffff" opacity="1" stroke-width="0" stroke="transparent" fill-opacity="1" class="rect-o-0" data-fill-palette-color="primary" rx="1%" id="o-0" data-palette-color="#35185a"></rect></g><g transform="matrix(1,0,0,1,0.6234228781395217,0)"><svg viewBox="0 0 249.36915125581393 245.672304" height="245.672304" width="249.36915125581393"><g transform="matrix(1,0,0,1,0,0)"><svg width="249.36915125581393" viewBox="4.909999847412109 -35.689998626708984 36.22999954223633 35.689998626708984" height="245.672304" data-palette-color="#35185a"><path d="M9.06 0L4.91 0 4.91-35.69 9.06-35.69 9.06 0ZM29.83-32.01L29.83 0 25.68 0 25.68-32.01 14.38-32.01 14.38-35.69 41.14-35.69 41.14-32.01 29.83-32.01Z" opacity="1" transform="matrix(1,0,0,1,0,0)" fill="#ffffff" class="wordmark-text-0" data-fill-palette-color="primary" id="text-0"></path></svg></g></svg></g><g transform="matrix(1,0,0,1,0,320.0248872637313)"><svg viewBox="0 0 249.36915125581393 27.99518213406529" height="27.99518213406529" width="249.36915125581393"><g transform="matrix(1,0,0,1,0,0)"><svg width="249.36915125581393" viewBox="3.25 -38.599998474121094 346.9200134277344 38.94999694824219" height="27.99518213406529" data-palette-color="#35185a"><path d="M4.1 0L4.1-26.7 10.35-26.7 10.35 0 4.1 0ZM7.25-31.1Q5.55-31.1 4.4-32.18 3.25-33.25 3.25-34.85L3.25-34.85Q3.25-36.45 4.4-37.52 5.55-38.6 7.25-38.6L7.25-38.6Q8.95-38.6 10.1-37.58 11.25-36.55 11.25-35L11.25-35Q11.25-33.35 10.13-32.23 9-31.1 7.25-31.1L7.25-31.1ZM26.8 0.35Q23.55 0.35 20.45-0.5 17.35-1.35 15.5-2.65L15.5-2.65 17.9-7.4Q19.7-6.2 22.22-5.48 24.75-4.75 27.2-4.75L27.2-4.75Q32.8-4.75 32.8-7.7L32.8-7.7Q32.8-9.1 31.37-9.65 29.95-10.2 26.8-10.7L26.8-10.7Q23.5-11.2 21.42-11.85 19.35-12.5 17.82-14.13 16.3-15.75 16.3-18.65L16.3-18.65Q16.3-22.45 19.47-24.73 22.65-27 28.05-27L28.05-27Q30.8-27 33.55-26.38 36.3-25.75 38.05-24.7L38.05-24.7 35.65-19.95Q32.25-21.95 28-21.95L28-21.95Q25.25-21.95 23.82-21.13 22.4-20.3 22.4-18.95L22.4-18.95Q22.4-17.45 23.92-16.82 25.45-16.2 28.65-15.65L28.65-15.65Q31.85-15.15 33.9-14.5 35.95-13.85 37.42-12.3 38.9-10.75 38.9-7.9L38.9-7.9Q38.9-4.15 35.65-1.9 32.4 0.35 26.8 0.35L26.8 0.35ZM59.45-27Q64.5-27 67.55-24.05 70.6-21.1 70.6-15.3L70.6-15.3 70.6 0 64.35 0 64.35-14.5Q64.35-18 62.7-19.78 61.05-21.55 58-21.55L58-21.55Q54.55-21.55 52.55-19.48 50.55-17.4 50.55-13.5L50.55-13.5 50.55 0 44.3 0 44.3-37.1 50.55-37.1 50.55-23.6Q52.1-25.25 54.37-26.13 56.65-27 59.45-27L59.45-27ZM91.04 0.35Q86.89 0.35 83.59-1.4 80.29-3.15 78.44-6.28 76.59-9.4 76.59-13.35L76.59-13.35Q76.59-17.3 78.44-20.4 80.29-23.5 83.57-25.25 86.84-27 91.04-27L91.04-27Q94.99-27 97.97-25.4 100.94-23.8 102.44-20.8L102.44-20.8 97.64-18Q96.49-19.85 94.77-20.78 93.04-21.7 90.99-21.7L90.99-21.7Q87.49-21.7 85.19-19.43 82.89-17.15 82.89-13.35L82.89-13.35Q82.89-9.55 85.17-7.28 87.44-5 90.99-5L90.99-5Q93.04-5 94.77-5.93 96.49-6.85 97.64-8.7L97.64-8.7 102.44-5.9Q100.89-2.9 97.92-1.28 94.94 0.35 91.04 0.35L91.04 0.35ZM122.74-27Q127.79-27 130.84-24.05 133.89-21.1 133.89-15.3L133.89-15.3 133.89 0 127.64 0 127.64-14.5Q127.64-18 125.99-19.78 124.34-21.55 121.29-21.55L121.29-21.55Q117.84-21.55 115.84-19.48 113.84-17.4 113.84-13.5L113.84-13.5 113.84 0 107.59 0 107.59-37.1 113.84-37.1 113.84-23.6Q115.39-25.25 117.67-26.13 119.94-27 122.74-27L122.74-27ZM161.44-26.7L167.69-26.7 167.69 0 161.74 0 161.74-3.4Q160.24-1.6 157.99-0.63 155.74 0.35 153.14 0.35L153.14 0.35Q147.79 0.35 144.71-2.63 141.64-5.6 141.64-11.45L141.64-11.45 141.64-26.7 147.89-26.7 147.89-12.3Q147.89-8.7 149.51-6.93 151.14-5.15 154.14-5.15L154.14-5.15Q157.49-5.15 159.46-7.23 161.44-9.3 161.44-13.2L161.44-13.2 161.44-26.7ZM196.04 0L186.79-11.45 182.14-7.05 182.14 0 175.89 0 175.89-37.1 182.14-37.1 182.14-14.7 195.09-26.7 202.59-26.7 191.44-15.5 203.64 0 196.04 0ZM234.73-5.9L236.48-1.45Q235.38-0.55 233.81-0.1 232.23 0.35 230.48 0.35L230.48 0.35Q226.08 0.35 223.68-1.95 221.28-4.25 221.28-8.65L221.28-8.65 221.28-32.6 227.53-32.6 227.53-26.5 234.68-26.5 234.68-21.5 227.53-21.5 227.53-8.8Q227.53-6.85 228.51-5.83 229.48-4.8 231.23-4.8L231.23-4.8Q233.33-4.8 234.73-5.9L234.73-5.9ZM260.58-26.7L266.83-26.7 266.83 0 260.88 0 260.88-3.45Q259.33-1.55 257.05-0.6 254.78 0.35 252.03 0.35L252.03 0.35Q248.13 0.35 245.05-1.35 241.98-3.05 240.25-6.15 238.53-9.25 238.53-13.35L238.53-13.35Q238.53-17.45 240.25-20.53 241.98-23.6 245.05-25.3 248.13-27 252.03-27L252.03-27Q254.63-27 256.8-26.1 258.98-25.2 260.58-23.45L260.58-23.45 260.58-26.7ZM252.73-5Q256.18-5 258.43-7.3 260.68-9.6 260.68-13.35L260.68-13.35Q260.68-17.1 258.43-19.4 256.18-21.7 252.73-21.7L252.73-21.7Q249.28-21.7 247.05-19.4 244.83-17.1 244.83-13.35L244.83-13.35Q244.83-9.6 247.05-7.3 249.28-5 252.73-5L252.73-5ZM280.98-22.8Q283.68-27 290.48-27L290.48-27 290.48-21.05Q289.68-21.2 289.03-21.2L289.03-21.2Q285.38-21.2 283.33-19.07 281.28-16.95 281.28-12.95L281.28-12.95 281.28 0 275.03 0 275.03-26.7 280.98-26.7 280.98-22.8ZM315.37-26.7L321.62-26.7 321.62 0 315.67 0 315.67-3.45Q314.12-1.55 311.85-0.6 309.57 0.35 306.82 0.35L306.82 0.35Q302.92 0.35 299.85-1.35 296.77-3.05 295.05-6.15 293.32-9.25 293.32-13.35L293.32-13.35Q293.32-17.45 295.05-20.53 296.77-23.6 299.85-25.3 302.92-27 306.82-27L306.82-27Q309.42-27 311.6-26.1 313.77-25.2 315.37-23.45L315.37-23.45 315.37-26.7ZM307.52-5Q310.97-5 313.22-7.3 315.47-9.6 315.47-13.35L315.47-13.35Q315.47-17.1 313.22-19.4 310.97-21.7 307.52-21.7L307.52-21.7Q304.07-21.7 301.85-19.4 299.62-17.1 299.62-13.35L299.62-13.35Q299.62-9.6 301.85-7.3 304.07-5 307.52-5L307.52-5ZM338.07 0.35Q334.82 0.35 331.72-0.5 328.62-1.35 326.77-2.65L326.77-2.65 329.17-7.4Q330.97-6.2 333.5-5.48 336.02-4.75 338.47-4.75L338.47-4.75Q344.07-4.75 344.07-7.7L344.07-7.7Q344.07-9.1 342.65-9.65 341.22-10.2 338.07-10.7L338.07-10.7Q334.77-11.2 332.7-11.85 330.62-12.5 329.1-14.13 327.57-15.75 327.57-18.65L327.57-18.65Q327.57-22.45 330.75-24.73 333.92-27 339.32-27L339.32-27Q342.07-27 344.82-26.38 347.57-25.75 349.32-24.7L349.32-24.7 346.92-19.95Q343.52-21.95 339.27-21.95L339.27-21.95Q336.52-21.95 335.1-21.13 333.67-20.3 333.67-18.95L333.67-18.95Q333.67-17.45 335.2-16.82 336.72-16.2 339.92-15.65L339.92-15.65Q343.12-15.15 345.17-14.5 347.22-13.85 348.7-12.3 350.17-10.75 350.17-7.9L350.17-7.9Q350.17-4.15 346.92-1.9 343.67 0.35 338.07 0.35L338.07 0.35Z" opacity="1" transform="matrix(1,0,0,1,0,0)" fill="#ffffff" class="slogan-text-1" data-fill-palette-color="secondary" id="text-1"></path></svg></g></svg></g></svg></g></svg></g></svg></g></svg></g><defs></defs></svg><rect width="178.01351102707875" height="247.2" fill="none" stroke="none" visibility="hidden"></rect></g></svg></g></svg>